<svg width="25" height="24" viewBox="0 0 25 24" fill="none" xmlns="http://www.w3.org/2000/svg">
<g id="google-symbol 1" clip-path="url(#clip0_2013_1648)">
<g id="Group">
<path id="Vector" d="M24.3068 10.141C24.4135 10.141 24.5 10.2275 24.5 10.3342V12.3623C24.5 13.1214 24.4295 13.8636 24.2942 14.5836C23.2481 20.1762 18.3211 24.4027 12.4154 24.362C5.7887 24.3163 0.485358 18.962 0.50003 12.3353C0.514608 5.7204 5.8817 0.362305 12.5 0.362305C15.7425 0.362305 18.6844 1.64865 20.8444 3.73815C20.9224 3.81357 20.9244 3.93788 20.8477 4.01457L17.9784 6.88384C17.9045 6.95771 17.7852 6.95963 17.7095 6.88759C16.3538 5.59716 14.5196 4.80493 12.5 4.80493C8.32947 4.80493 4.97111 8.13943 4.9428 12.3099C4.91434 16.5076 8.30884 19.9196 12.5 19.9196C15.9005 19.9196 18.7767 17.6732 19.7251 14.5836H12.6932C12.5865 14.5836 12.5 14.4971 12.5 14.3904V10.3341C12.5 10.2274 12.5865 10.1409 12.6932 10.1409H24.3068V10.141Z" fill="#2196F3"/>
<g id="Group_2">
<path id="Vector_2" d="M24.3073 10.1411H22.8587C22.9653 10.1411 23.0518 10.2276 23.0518 10.3343V12.3624C23.0518 13.1215 22.9813 13.8637 22.8461 14.5837C21.8481 19.9191 17.3178 24.0111 11.7754 24.3408C11.9875 24.3533 12.2009 24.3606 12.4159 24.3621C18.3217 24.4028 23.2487 20.1763 24.2948 14.5837C24.43 13.8637 24.5005 13.1215 24.5005 12.3624V10.3342C24.5005 10.2276 24.414 10.1411 24.3073 10.1411Z" fill="#1E88E5"/>
</g>
<path id="Vector_3" d="M5.63663 9.1974L1.99219 6.56415C4.03678 2.86613 7.97672 0.362305 12.501 0.362305C15.7435 0.362305 18.6855 1.64865 20.8454 3.73815C20.9234 3.81357 20.9254 3.93788 20.8487 4.01457L17.9794 6.88384C17.9057 6.95757 17.7863 6.95987 17.7108 6.88796C16.3552 5.5973 14.5208 4.80498 12.501 4.80498C9.45731 4.80498 6.83372 6.60423 5.63663 9.1974Z" fill="#F44336"/>
<path id="Vector_4" d="M4.58398 8.43694L5.63609 9.19712C6.72875 6.83021 9.01006 5.12555 11.7143 4.84594C11.7346 4.84373 11.7542 4.84106 11.7749 4.83909C11.5369 4.8165 11.2957 4.80469 11.0518 4.80469C8.30225 4.80469 5.906 6.25421 4.58398 8.43694Z" fill="#E53935"/>
<path id="Vector_5" d="M19.3958 3.73815C19.4738 3.81357 19.4758 3.93788 19.3991 4.01462L17.0702 6.34351C17.2933 6.5132 17.5069 6.6947 17.7096 6.88763C17.7852 6.95968 17.9046 6.95776 17.9785 6.88388L20.8478 4.01462C20.9245 3.93788 20.9224 3.81362 20.8445 3.73815C18.6845 1.64865 15.7426 0.362305 12.5001 0.362305C12.2568 0.362305 12.0154 0.370414 11.7756 0.384711C14.7306 0.560727 17.3979 1.8054 19.3958 3.73815Z" fill="#E53935"/>
<path id="Vector_6" d="M21.3017 20.5177C19.1103 22.8824 15.9773 24.3625 12.499 24.3625C7.80089 24.3625 3.73345 21.6626 1.76367 17.7294L5.48438 15.1797C6.60089 17.9578 9.32105 19.9198 12.499 19.9198C14.4933 19.9198 16.3071 19.1472 17.6573 17.8849L21.3017 20.5177Z" fill="#4CAF50"/>
<path id="Vector_7" d="M5.48583 15.1797L4.38867 15.9315C5.66297 18.3055 8.16886 19.9198 11.0517 19.9198C11.2955 19.9198 11.5365 19.9078 11.7744 19.8853C8.91272 19.6125 6.51623 17.7437 5.48583 15.1797Z" fill="#43A047"/>
<path id="Vector_8" d="M12.5001 24.3622C15.9784 24.3622 19.1115 22.8822 21.3029 20.5174L20.4102 19.8726C18.3526 22.4333 15.2659 24.1321 11.7776 24.3404C12.0167 24.3547 12.2575 24.3622 12.5001 24.3622Z" fill="#43A047"/>
<path id="Vector_9" d="M4.94267 12.3621C4.94267 13.3578 5.13533 14.3087 5.48544 15.1794L1.76469 17.729C0.955391 16.1142 0.5 14.2913 0.5 12.3621C0.5 10.2591 1.04084 8.28259 1.99119 6.56396L5.63562 9.19721C5.19088 10.1596 4.94267 11.2322 4.94267 12.3621Z" fill="#FFC107"/>
<path id="Vector_10" d="M4.38846 15.9312L5.48562 15.1793C5.13551 14.3087 4.94285 13.3578 4.94285 12.3621C4.94285 11.2321 5.19105 10.1596 5.6358 9.19718L4.58369 8.43701C3.90049 9.56506 3.50398 10.8888 3.49432 12.3097C3.48541 13.62 3.81012 14.8538 4.38846 15.9312Z" fill="#FFB300"/>
</g>
</g>
<defs>
<clipPath id="clip0_2013_1648">
<rect width="24" height="24" fill="white" transform="translate(0.5 0.362305)"/>
</clipPath>
</defs>
</svg>
