<?xml version="1.0" encoding="UTF-8"?>
<svg width="64px" height="64px" viewBox="0 0 64 64" version="1.1" xmlns="http://www.w3.org/2000/svg" xmlns:xlink="http://www.w3.org/1999/xlink">
    <title>MainViewActive</title>
    <g id="Page-1" stroke="none" stroke-width="1" fill="none" fill-rule="evenodd">
        <g id="Tab-Bar-Lite" transform="translate(-156, -6)">
            <g id="MainViewActive" transform="translate(156, 6)">
                <rect id="Rectangle" x="0" y="0" width="64" height="64"></rect>
                <path d="M32,10 C44.1502645,10 54,19.8497355 54,32 C54,44.1502645 44.1502645,54 32,54 C19.8497355,54 10,44.1502645 10,32 C10,19.8497355 19.8497355,10 32,10 Z M29.985,22.747 L23.467,27.9647 C22.873,28.422 22.518,29.1206 22.5,29.8669 L22.5,38.5689 C22.5,40.4639 24.047,42.0000206 25.956,42.0000206 L27.872,42.0000206 C28.551,42.0000206 29.103,41.4562 29.108,40.7822 L29.135,40.7733 L29.135,37.7156 C29.135,36.9351 29.772,36.3023 30.558,36.3023 L33.433,36.3023 C33.81,36.3023 34.172,36.4512 34.439,36.7163 C34.706,36.9813 34.856,37.3408 34.856,37.7156 L34.856,40.7733 C34.854,41.0978 34.982,41.4099 35.212,41.6402 C35.443,41.8705 35.756,42.0000206 36.083,42.0000206 L38.044,42.0000206 C38.96,42.0023 39.839,41.6428 40.487,41.0008 C41.136,40.3588 41.5,39.487 41.5,38.5778 L41.5,29.8669 C41.5,29.1325 41.172,28.4358 40.605,27.9647 L33.934,22.6759 C32.774,21.7486 31.111,21.7785 29.985,22.747 Z" id="Combined-Shape" fill="#514EB6" fill-rule="nonzero"></path>
            </g>
        </g>
    </g>
</svg>