<?xml version="1.0" encoding="UTF-8"?>
<svg width="64px" height="64px" viewBox="0 0 64 64" version="1.1" xmlns="http://www.w3.org/2000/svg" xmlns:xlink="http://www.w3.org/1999/xlink">
    <title>FavoritesViewActive</title>
    <g id="Page-1" stroke="none" stroke-width="1" fill="none" fill-rule="evenodd">
        <g id="Tab-Bar-Lite" transform="translate(-234, -6)">
            <g id="FavoritesViewActive" transform="translate(234, 6)">
                <rect id="Rectangle" x="0" y="0" width="64" height="64"></rect>
                <path d="M28.712,39.3765949 L29.176,38.7875949 L28.712,39.3765949 Z M31.75,25.9663949 L31.21,26.4864949 C31.351,26.6333949 31.546,26.7163949 31.75,26.7163949 C31.954,26.7163949 32.149,26.6333949 32.29,26.4864949 L31.75,25.9663949 Z M34.788,39.3765949 L35.253,39.9655949 L34.788,39.3765949 Z M29.176,38.7875949 C27.66,37.5927949 26.003,36.4259949 24.688,34.9454949 C23.399,33.4939949 22.5,31.8002949 22.5,29.6028949 L21,29.6028949 C21,32.2683949 22.11,34.3017949 23.567,35.9415949 C24.997,37.5523949 26.821,38.8409949 28.247,39.9655949 L29.176,38.7875949 Z M22.5,29.6028949 C22.5,27.4519949 23.715,25.6482949 25.374,24.8898949 C26.986,24.1531949 29.152,24.3482949 31.21,26.4864949 L32.29,25.4462949 C29.848,22.9092949 27.014,22.4910949 24.751,23.5256949 C22.535,24.5386949 21,26.8907949 21,29.6028949 L22.5,29.6028949 Z M28.247,39.9655949 C28.76,40.3693949 29.31,40.7999949 29.867,41.1256949 C30.424,41.4511949 31.06,41.7157949 31.75,41.7157949 L31.75,40.2157949 C31.44,40.2157949 31.076,40.0949949 30.624,39.8305949 C30.171,39.5662949 29.702,39.2022949 29.176,38.7875949 L28.247,39.9655949 Z M35.253,39.9655949 C36.679,38.8409949 38.503,37.5523949 39.933,35.9415949 C41.39,34.3017949 42.5,32.2683949 42.5,29.6028949 L41,29.6028949 C41,31.8002949 40.101,33.4939949 38.812,34.9454949 C37.497,36.4259949 35.84,37.5927949 34.324,38.7875949 L35.253,39.9655949 Z M42.5,29.6028949 C42.5,26.8907949 40.965,24.5386949 38.749,23.5256949 C36.486,22.4910949 33.652,22.9092949 31.21,25.4462949 L32.29,26.4864949 C34.348,24.3482949 36.514,24.1531949 38.126,24.8898949 C39.785,25.6482949 41,27.4519949 41,29.6028949 L42.5,29.6028949 Z M34.324,38.7875949 C33.798,39.2022949 33.329,39.5662949 32.876,39.8305949 C32.424,40.0949949 32.06,40.2157949 31.75,40.2157949 L31.75,41.7157949 C32.44,41.7157949 33.076,41.4511949 33.633,41.1256949 C34.19,40.7999949 34.74,40.3693949 35.253,39.9655949 L34.324,38.7875949 Z" id="Shape" fill="#7C7C7B" fill-rule="nonzero"></path>
            </g>
        </g>
    </g>
</svg>